<svg width="105" height="19" viewBox="0 0 105 19" fill="none" xmlns="http://www.w3.org/2000/svg">
<path d="M6.87995 18.36C5.19995 18.36 3.79195 17.912 2.65595 17.016C1.53595 16.104 0.975952 14.848 0.975952 13.248H4.21595C4.26395 13.968 4.53595 14.552 5.03195 15C5.52795 15.432 6.19995 15.648 7.04795 15.648C7.99195 15.648 8.77595 15.336 9.39995 14.712C10.04 14.088 10.36 13.24 10.36 12.168C10.36 11.32 10.128 10.656 9.66395 10.176C9.19995 9.696 8.54395 9.456 7.69595 9.456C6.67195 9.456 5.79995 9.816 5.07995 10.536H2.15195L4.81595 1.56H14.728L14.2 4.272H6.71195L5.60795 7.968H5.65595C6.55195 7.184 7.63995 6.792 8.91995 6.792C10.344 6.792 11.504 7.248 12.4 8.16C13.312 9.056 13.768 10.256 13.768 11.76C13.768 13.744 13.112 15.344 11.8 16.56C10.488 17.76 8.84795 18.36 6.87995 18.36Z" fill="white"/>
<path d="M25.1822 18L21.3902 9.744L19.1342 11.736L17.9342 18H14.5022L17.8142 0.839998H21.2462L19.9262 7.704L27.2942 0.839998H31.5182L24.0302 7.56L28.9262 18H25.1822Z" fill="white"/>
<path d="M34.2366 18L37.5486 0.839998H44.4606C46.1086 0.839998 47.3806 1.256 48.2766 2.088C49.1886 2.92 49.6446 4.024 49.6446 5.4C49.6446 7.768 48.3886 9.272 45.8766 9.912V9.984C47.2846 10.432 47.9886 11.416 47.9886 12.936C47.9886 13.24 47.9566 13.832 47.8926 14.712C47.8286 15.592 47.7966 16.264 47.7966 16.728C47.7966 17.352 47.9086 17.72 48.1326 17.832V18H44.8206C44.6446 17.808 44.5566 17.384 44.5566 16.728C44.5566 16.36 44.5806 15.8 44.6286 15.048C44.6766 14.28 44.7006 13.736 44.7006 13.416C44.7006 11.88 43.8366 11.112 42.1086 11.112H38.9886L37.6686 18H34.2366ZM40.4526 3.624L39.5166 8.448H43.0926C43.9886 8.448 44.7326 8.232 45.3246 7.8C45.9166 7.352 46.2126 6.68 46.2126 5.784C46.2126 4.344 45.4526 3.624 43.9326 3.624H40.4526Z" fill="white"/>
<path d="M60.2134 18L59.7334 14.328H53.8054L52.0774 18H48.5974L57.3814 0.839998H60.9334L63.7654 18H60.2134ZM57.3814 6.816L55.0534 11.688H59.3974L58.7974 6.864L58.5814 4.128H58.5334C58.0534 5.312 57.6694 6.208 57.3814 6.816Z" fill="white"/>
<path d="M65.0803 18L68.3923 0.839998H73.8403C76.0003 0.839998 77.7043 1.464 78.9523 2.712C80.2003 3.96 80.8243 5.76 80.8243 8.112C80.8243 11.264 79.9923 13.72 78.3283 15.48C77.5923 16.264 76.6483 16.88 75.4963 17.328C74.3443 17.776 73.1203 18 71.8243 18H65.0803ZM69.0883 15H71.8483C73.6243 15 74.9843 14.408 75.9283 13.224C76.8723 12.024 77.3443 10.352 77.3443 8.208C77.3443 6.784 77.0083 5.696 76.3363 4.944C75.6803 4.192 74.7043 3.816 73.4083 3.816H71.2483L69.0883 15Z" fill="white"/>
<path d="M80.9246 18L84.2366 0.839998H87.6686L84.3566 18H80.9246Z" fill="white"/>
<path d="M95.179 18.384C92.939 18.384 91.131 17.728 89.755 16.416C88.395 15.088 87.715 13.288 87.715 11.016C87.715 9.624 87.9149 8.304 88.3149 7.056C88.7149 5.792 89.283 4.672 90.019 3.696C90.755 2.72 91.699 1.944 92.851 1.368C94.003 0.791998 95.275 0.503998 96.667 0.503998C98.891 0.503998 100.675 1.192 102.019 2.568C103.379 3.928 104.059 5.736 104.059 7.992C104.059 9.368 103.867 10.672 103.483 11.904C103.099 13.136 102.547 14.24 101.827 15.216C101.107 16.176 100.171 16.944 99.019 17.52C97.883 18.096 96.603 18.384 95.179 18.384ZM91.219 10.944C91.219 12.32 91.555 13.432 92.227 14.28C92.899 15.128 93.931 15.552 95.323 15.552C96.251 15.552 97.059 15.328 97.747 14.88C98.451 14.416 98.995 13.808 99.379 13.056C99.779 12.304 100.075 11.512 100.267 10.68C100.459 9.832 100.555 8.968 100.555 8.088C100.555 6.68 100.211 5.536 99.5229 4.656C98.8349 3.776 97.811 3.336 96.451 3.336C95.539 3.336 94.731 3.568 94.027 4.032C93.339 4.496 92.795 5.104 92.395 5.856C92.011 6.608 91.715 7.416 91.507 8.28C91.315 9.144 91.219 10.032 91.219 10.944Z" fill="white"/>
</svg>
